REM DIRINDEX 1\6,1\2\7,1\2\8,1\2\9,1\3\10,1\3\11,1\4\12,1\4\13,1\4\14,1\5\15,1\5\16,1\5\17
REM DIRNAME folder01,folder02,folder03,folder04,folder05,folder06,folder07,folder08,folder09,folder10,folder11,folder12,folder13,folder14,folder15,folder16,folder17
TITLE ""
FILE "P2Q_k_061-070.mp3" MP3
  TRACK 01 AUDIO
    TITLE "15:cjc040_1489"
    INDEX 01 00:00:00
  TRACK 02 AUDIO
    TITLE "0:"
    INDEX 01 00:01:22
  TRACK 03 AUDIO
    TITLE "16:cjc040_1490"
    INDEX 01 00:02:02
  TRACK 04 AUDIO
    TITLE "0:"
    INDEX 01 00:03:27
  TRACK 05 AUDIO
    TITLE "17:cjc040_1491"
    INDEX 01 00:04:03
  TRACK 06 AUDIO
    TITLE "17:cjc040_1492"
    INDEX 01 00:06:67
  TRACK 07 AUDIO
    TITLE "0:"
    INDEX 01 00:10:00
  TRACK 08 AUDIO
    TITLE "15:cjc040_1493"
    INDEX 01 00:10:51
  TRACK 09 AUDIO
    TITLE "0:"
    INDEX 01 00:13:10
  TRACK 10 AUDIO
    TITLE "16:cjc040_1494"
    INDEX 01 00:13:67
  TRACK 11 AUDIO
    TITLE "0:"
    INDEX 01 00:16:14
  TRACK 12 AUDIO
    TITLE "17:cjc040_1495"
    INDEX 01 00:16:57
  TRACK 13 AUDIO
    TITLE "17:cjc040_1496"
    INDEX 01 00:21:25
  TRACK 14 AUDIO
    TITLE "0:"
    INDEX 01 00:24:43
  TRACK 15 AUDIO
    TITLE "15:cjc040_1497"
    INDEX 01 00:25:21
  TRACK 16 AUDIO
    TITLE "0:"
    INDEX 01 00:27:49
  TRACK 17 AUDIO
    TITLE "16:cjc040_1498"
    INDEX 01 00:28:29
  TRACK 18 AUDIO
    TITLE "0:"
    INDEX 01 00:31:12
  TRACK 19 AUDIO
    TITLE "17:cjc040_1499"
    INDEX 01 00:31:61
  TRACK 20 AUDIO
    TITLE "17:cjc040_1500"
    INDEX 01 00:36:62
  TRACK 21 AUDIO
    TITLE "0:"
    INDEX 01 00:39:35
  TRACK 22 AUDIO
    TITLE "15:cjc040_1501"
    INDEX 01 00:40:11
  TRACK 23 AUDIO
    TITLE "0:"
    INDEX 01 00:42:43
  TRACK 24 AUDIO
    TITLE "16:cjc040_1502"
    INDEX 01 00:43:23
  TRACK 25 AUDIO
    TITLE "0:"
    INDEX 01 00:44:73
  TRACK 26 AUDIO
    TITLE "17:cjc040_1503"
    INDEX 01 00:45:45
  TRACK 27 AUDIO
    TITLE "17:cjc040_1504"
    INDEX 01 00:51:01
  TRACK 28 AUDIO
    TITLE "0:"
    INDEX 01 00:53:09
  TRACK 29 AUDIO
    TITLE "15:cjc040_1505"
    INDEX 01 00:53:58
  TRACK 30 AUDIO
    TITLE "0:"
    INDEX 01 00:56:04
  TRACK 31 AUDIO
    TITLE "16:cjc040_1506"
    INDEX 01 00:56:51
  TRACK 32 AUDIO
    TITLE "0:"
    INDEX 01 00:59:16
  TRACK 33 AUDIO
    TITLE "17:cjc040_1507"
    INDEX 01 00:59:63
  TRACK 34 AUDIO
    TITLE "17:cjc040_1508"
    INDEX 01 01:04:23
  TRACK 35 AUDIO
    TITLE "0:"
    INDEX 01 01:05:73
  TRACK 36 AUDIO
    TITLE "15:cjc040_1509"
    INDEX 01 01:06:47
  TRACK 37 AUDIO
    TITLE "0:"
    INDEX 01 01:08:09
  TRACK 38 AUDIO
    TITLE "16:cjc040_1510"
    INDEX 01 01:08:56
  TRACK 39 AUDIO
    TITLE "0:"
    INDEX 01 01:11:02
  TRACK 40 AUDIO
    TITLE "17:cjc040_1511"
    INDEX 01 01:11:51
  TRACK 41 AUDIO
    TITLE "17:cjc040_1512"
    INDEX 01 01:14:21
  TRACK 42 AUDIO
    TITLE "0:"
    INDEX 01 01:16:50
  TRACK 43 AUDIO
    TITLE "15:cjc040_1513"
    INDEX 01 01:17:28
  TRACK 44 AUDIO
    TITLE "0:"
    INDEX 01 01:18:58
  TRACK 45 AUDIO
    TITLE "16:cjc040_1514"
    INDEX 01 01:19:42
  TRACK 46 AUDIO
    TITLE "0:"
    INDEX 01 01:21:70
  TRACK 47 AUDIO
    TITLE "17:cjc040_1515"
    INDEX 01 01:22:46
  TRACK 48 AUDIO
    TITLE "17:cjc040_1516"
    INDEX 01 01:25:25
  TRACK 49 AUDIO
    TITLE "0:"
    INDEX 01 01:28:16
  TRACK 50 AUDIO
    TITLE "15:cjc040_1517"
    INDEX 01 01:29:01
  TRACK 51 AUDIO
    TITLE "0:"
    INDEX 01 01:30:38
  TRACK 52 AUDIO
    TITLE "16:cjc040_1518"
    INDEX 01 01:31:20
  TRACK 53 AUDIO
    TITLE "0:"
    INDEX 01 01:33:64
  TRACK 54 AUDIO
    TITLE "17:cjc040_1519"
    INDEX 01 01:34:40
  TRACK 55 AUDIO
    TITLE "17:cjc040_1520"
    INDEX 01 01:38:00
  TRACK 56 AUDIO
    TITLE "0:"
    INDEX 01 01:39:72
  TRACK 57 AUDIO
    TITLE "15:cjc040_1521"
    INDEX 01 01:40:52
  TRACK 58 AUDIO
    TITLE "0:"
    INDEX 01 01:42:22
  TRACK 59 AUDIO
    TITLE "16:cjc040_1522"
    INDEX 01 01:43:03
  TRACK 60 AUDIO
    TITLE "0:"
    INDEX 01 01:44:42
  TRACK 61 AUDIO
    TITLE "17:cjc040_1523"
    INDEX 01 01:45:18
  TRACK 62 AUDIO
    TITLE "17:cjc040_1524"
    INDEX 01 01:46:53
  TRACK 63 AUDIO
    TITLE "0:"
    INDEX 01 01:49:51
  TRACK 64 AUDIO
    TITLE "15:cjc040_1525"
    INDEX 01 01:50:27
  TRACK 65 AUDIO
    TITLE "0:"
    INDEX 01 01:52:04
  TRACK 66 AUDIO
    TITLE "16:cjc040_1526"
    INDEX 01 01:52:59
  TRACK 67 AUDIO
    TITLE "0:"
    INDEX 01 01:54:17
  TRACK 68 AUDIO
    TITLE "17:cjc040_1527"
    INDEX 01 01:54:72
  TRACK 69 AUDIO
    TITLE "17:cjc040_1528"
    INDEX 01 01:58:70
  TRACK 70 AUDIO
    TITLE "0:"
    INDEX 01 02:01:54
